<mxfile host="app.diagrams.net" modified="2023-10-19T21:48:14.443Z" agent="Mozilla/5.0 (Macintosh; Intel Mac OS X 10_15_7) AppleWebKit/605.1.15 (KHTML, like Gecko) Version/17.0 Safari/605.1.15" etag="QJU0_gil9HsGRQjXQQFj" version="22.0.4" type="device">
  <diagram name="Page-1" id="FLzY8hkTA-FRF9mG47vT">
    <mxGraphModel dx="2045" dy="2103" grid="1" gridSize="10" guides="1" tooltips="1" connect="1" arrows="1" fold="1" page="1" pageScale="1" pageWidth="827" pageHeight="1169" math="0" shadow="0">
      <root>
        <mxCell id="0" />
        <mxCell id="1" parent="0" />
        <mxCell id="e3qIg_uYp7nMrzDBOxzo-1" value="Customer" style="shape=umlActor;verticalLabelPosition=bottom;verticalAlign=top;html=1;outlineConnect=0;" vertex="1" parent="1">
          <mxGeometry x="23" y="180" width="30" height="60" as="geometry" />
        </mxCell>
        <mxCell id="e3qIg_uYp7nMrzDBOxzo-3" value="Seller" style="shape=umlActor;verticalLabelPosition=bottom;verticalAlign=top;html=1;outlineConnect=0;" vertex="1" parent="1">
          <mxGeometry x="755" y="410" width="30" height="60" as="geometry" />
        </mxCell>
        <mxCell id="e3qIg_uYp7nMrzDBOxzo-75" style="edgeStyle=orthogonalEdgeStyle;rounded=0;orthogonalLoop=1;jettySize=auto;html=1;entryX=0;entryY=0.5;entryDx=0;entryDy=0;" edge="1" parent="1" target="e3qIg_uYp7nMrzDBOxzo-20">
          <mxGeometry relative="1" as="geometry">
            <mxPoint x="500" y="650" as="sourcePoint" />
            <Array as="points">
              <mxPoint x="500" y="560" />
            </Array>
          </mxGeometry>
        </mxCell>
        <mxCell id="e3qIg_uYp7nMrzDBOxzo-83" style="edgeStyle=orthogonalEdgeStyle;rounded=0;orthogonalLoop=1;jettySize=auto;html=1;entryX=1;entryY=0.5;entryDx=0;entryDy=0;" edge="1" parent="1" target="e3qIg_uYp7nMrzDBOxzo-80">
          <mxGeometry relative="1" as="geometry">
            <mxPoint x="470" y="680" as="sourcePoint" />
          </mxGeometry>
        </mxCell>
        <mxCell id="e3qIg_uYp7nMrzDBOxzo-7" value="Manager System&lt;br&gt;" style="shape=umlActor;verticalLabelPosition=bottom;verticalAlign=top;html=1;outlineConnect=0;" vertex="1" parent="1">
          <mxGeometry x="485.5" y="660" width="30" height="60" as="geometry" />
        </mxCell>
        <mxCell id="e3qIg_uYp7nMrzDBOxzo-9" value="Buy Items" style="ellipse;whiteSpace=wrap;html=1;fillColor=#76608a;fontColor=#ffffff;strokeColor=#432D57;" vertex="1" parent="1">
          <mxGeometry x="113" y="-30" width="90" height="60" as="geometry" />
        </mxCell>
        <mxCell id="e3qIg_uYp7nMrzDBOxzo-11" value="Cash" style="ellipse;whiteSpace=wrap;html=1;" vertex="1" parent="1">
          <mxGeometry x="260" y="200" width="71" height="40" as="geometry" />
        </mxCell>
        <mxCell id="e3qIg_uYp7nMrzDBOxzo-14" value="Card" style="ellipse;whiteSpace=wrap;html=1;" vertex="1" parent="1">
          <mxGeometry x="420" y="210" width="71" height="40" as="geometry" />
        </mxCell>
        <mxCell id="e3qIg_uYp7nMrzDBOxzo-15" value="Vouchers" style="ellipse;whiteSpace=wrap;html=1;" vertex="1" parent="1">
          <mxGeometry x="430" y="330" width="71" height="40" as="geometry" />
        </mxCell>
        <mxCell id="e3qIg_uYp7nMrzDBOxzo-16" value="Checkout" style="ellipse;whiteSpace=wrap;html=1;" vertex="1" parent="1">
          <mxGeometry x="190" y="400" width="90" height="60" as="geometry" />
        </mxCell>
        <mxCell id="e3qIg_uYp7nMrzDBOxzo-17" value="Cancel Item" style="ellipse;whiteSpace=wrap;html=1;" vertex="1" parent="1">
          <mxGeometry x="269" y="500" width="71" height="40" as="geometry" />
        </mxCell>
        <mxCell id="e3qIg_uYp7nMrzDBOxzo-18" value="Cancel order" style="ellipse;whiteSpace=wrap;html=1;" vertex="1" parent="1">
          <mxGeometry x="224.5" y="580" width="71" height="40" as="geometry" />
        </mxCell>
        <mxCell id="e3qIg_uYp7nMrzDBOxzo-19" value="Login" style="ellipse;whiteSpace=wrap;html=1;strokeColor=#000000;" vertex="1" parent="1">
          <mxGeometry x="610" y="400" width="90" height="60" as="geometry" />
        </mxCell>
        <mxCell id="e3qIg_uYp7nMrzDBOxzo-20" value="Make Reports" style="ellipse;whiteSpace=wrap;html=1;" vertex="1" parent="1">
          <mxGeometry x="560" y="530" width="90" height="60" as="geometry" />
        </mxCell>
        <mxCell id="e3qIg_uYp7nMrzDBOxzo-21" value="System Admin" style="ellipse;whiteSpace=wrap;html=1;" vertex="1" parent="1">
          <mxGeometry x="560" y="770" width="90" height="60" as="geometry" />
        </mxCell>
        <mxCell id="e3qIg_uYp7nMrzDBOxzo-22" value="Manager Users" style="ellipse;whiteSpace=wrap;html=1;" vertex="1" parent="1">
          <mxGeometry x="714" y="780" width="71" height="40" as="geometry" />
        </mxCell>
        <mxCell id="e3qIg_uYp7nMrzDBOxzo-23" value="&lt;font style=&quot;font-size: 12px;&quot;&gt;Update inventory&lt;/font&gt;" style="ellipse;whiteSpace=wrap;html=1;" vertex="1" parent="1">
          <mxGeometry x="119" y="490" width="71" height="40" as="geometry" />
        </mxCell>
        <mxCell id="e3qIg_uYp7nMrzDBOxzo-24" value="Sales Report" style="ellipse;whiteSpace=wrap;html=1;" vertex="1" parent="1">
          <mxGeometry x="750" y="600" width="71" height="40" as="geometry" />
        </mxCell>
        <mxCell id="e3qIg_uYp7nMrzDBOxzo-25" value="Inventory Report" style="ellipse;whiteSpace=wrap;html=1;" vertex="1" parent="1">
          <mxGeometry x="755" y="530" width="71" height="40" as="geometry" />
        </mxCell>
        <mxCell id="e3qIg_uYp7nMrzDBOxzo-26" value="" style="endArrow=classic;html=1;rounded=0;entryX=0;entryY=0;entryDx=0;entryDy=0;" edge="1" parent="1" source="e3qIg_uYp7nMrzDBOxzo-1" target="e3qIg_uYp7nMrzDBOxzo-16">
          <mxGeometry width="50" height="50" relative="1" as="geometry">
            <mxPoint x="70" y="260" as="sourcePoint" />
            <mxPoint x="249" y="280" as="targetPoint" />
          </mxGeometry>
        </mxCell>
        <mxCell id="e3qIg_uYp7nMrzDBOxzo-27" value="" style="endArrow=classic;html=1;rounded=0;entryX=0;entryY=1;entryDx=0;entryDy=0;exitX=1;exitY=0;exitDx=0;exitDy=0;fillColor=#dae8fc;strokeColor=#6c8ebf;dashed=1;" edge="1" parent="1" source="e3qIg_uYp7nMrzDBOxzo-16" target="e3qIg_uYp7nMrzDBOxzo-29">
          <mxGeometry width="50" height="50" relative="1" as="geometry">
            <mxPoint x="336.5" y="280" as="sourcePoint" />
            <mxPoint x="333.18019484660545" y="321.21320343559637" as="targetPoint" />
          </mxGeometry>
        </mxCell>
        <mxCell id="e3qIg_uYp7nMrzDBOxzo-28" value="&amp;lt;&amp;lt;include&amp;gt;&amp;gt;" style="text;html=1;strokeColor=none;fillColor=none;align=center;verticalAlign=middle;whiteSpace=wrap;rounded=0;fontColor=#0025C2;" vertex="1" parent="1">
          <mxGeometry x="230" y="230" width="60" height="30" as="geometry" />
        </mxCell>
        <mxCell id="e3qIg_uYp7nMrzDBOxzo-29" value="Make Payment" style="ellipse;whiteSpace=wrap;html=1;" vertex="1" parent="1">
          <mxGeometry x="320" y="280" width="71" height="40" as="geometry" />
        </mxCell>
        <mxCell id="e3qIg_uYp7nMrzDBOxzo-30" value="" style="endArrow=classic;html=1;rounded=0;entryX=0.5;entryY=1;entryDx=0;entryDy=0;exitX=0;exitY=0;exitDx=0;exitDy=0;fillColor=#dae8fc;strokeColor=#6c8ebf;dashed=1;" edge="1" parent="1" source="e3qIg_uYp7nMrzDBOxzo-29" target="e3qIg_uYp7nMrzDBOxzo-11">
          <mxGeometry width="50" height="50" relative="1" as="geometry">
            <mxPoint x="390" y="450" as="sourcePoint" />
            <mxPoint x="440" y="400" as="targetPoint" />
          </mxGeometry>
        </mxCell>
        <mxCell id="e3qIg_uYp7nMrzDBOxzo-32" value="" style="endArrow=classic;html=1;rounded=0;entryX=0;entryY=1;entryDx=0;entryDy=0;exitX=1;exitY=0;exitDx=0;exitDy=0;fillColor=#dae8fc;strokeColor=#6c8ebf;dashed=1;" edge="1" parent="1" source="e3qIg_uYp7nMrzDBOxzo-29" target="e3qIg_uYp7nMrzDBOxzo-14">
          <mxGeometry width="50" height="50" relative="1" as="geometry">
            <mxPoint x="341" y="296" as="sourcePoint" />
            <mxPoint x="326" y="250" as="targetPoint" />
          </mxGeometry>
        </mxCell>
        <mxCell id="e3qIg_uYp7nMrzDBOxzo-33" value="" style="endArrow=classic;html=1;rounded=0;entryX=0;entryY=0.5;entryDx=0;entryDy=0;exitX=1;exitY=1;exitDx=0;exitDy=0;fillColor=#dae8fc;strokeColor=#6c8ebf;dashed=1;" edge="1" parent="1" source="e3qIg_uYp7nMrzDBOxzo-29" target="e3qIg_uYp7nMrzDBOxzo-15">
          <mxGeometry width="50" height="50" relative="1" as="geometry">
            <mxPoint x="366" y="290" as="sourcePoint" />
            <mxPoint x="410" y="254" as="targetPoint" />
          </mxGeometry>
        </mxCell>
        <mxCell id="e3qIg_uYp7nMrzDBOxzo-34" value="&amp;lt;&amp;lt;include&amp;gt;&amp;gt;" style="text;html=1;strokeColor=none;fillColor=none;align=center;verticalAlign=middle;whiteSpace=wrap;rounded=0;fontColor=#0025C2;" vertex="1" parent="1">
          <mxGeometry x="169" y="40" width="60" height="30" as="geometry" />
        </mxCell>
        <mxCell id="e3qIg_uYp7nMrzDBOxzo-35" value="&amp;lt;&amp;lt;include&amp;gt;&amp;gt;" style="text;html=1;strokeColor=none;fillColor=none;align=center;verticalAlign=middle;whiteSpace=wrap;rounded=0;fontColor=#0025C2;" vertex="1" parent="1">
          <mxGeometry x="425.5" y="240" width="60" height="30" as="geometry" />
        </mxCell>
        <mxCell id="e3qIg_uYp7nMrzDBOxzo-36" value="&amp;lt;&amp;lt;include&amp;gt;&amp;gt;" style="text;html=1;strokeColor=none;fillColor=none;align=center;verticalAlign=middle;whiteSpace=wrap;rounded=0;fontColor=#0025C2;" vertex="1" parent="1">
          <mxGeometry x="365.5" y="340" width="60" height="30" as="geometry" />
        </mxCell>
        <mxCell id="e3qIg_uYp7nMrzDBOxzo-37" value="" style="endArrow=classic;html=1;rounded=0;entryX=1;entryY=0;entryDx=0;entryDy=0;exitX=0;exitY=1;exitDx=0;exitDy=0;fillColor=#dae8fc;strokeColor=#6c8ebf;dashed=1;" edge="1" parent="1" source="e3qIg_uYp7nMrzDBOxzo-16" target="e3qIg_uYp7nMrzDBOxzo-23">
          <mxGeometry width="50" height="50" relative="1" as="geometry">
            <mxPoint x="390" y="296" as="sourcePoint" />
            <mxPoint x="410" y="244" as="targetPoint" />
          </mxGeometry>
        </mxCell>
        <mxCell id="e3qIg_uYp7nMrzDBOxzo-39" value="" style="endArrow=classic;html=1;rounded=0;entryX=0.5;entryY=0;entryDx=0;entryDy=0;fillColor=#dae8fc;strokeColor=#6c8ebf;dashed=1;exitX=0.5;exitY=1;exitDx=0;exitDy=0;" edge="1" parent="1" source="e3qIg_uYp7nMrzDBOxzo-16" target="e3qIg_uYp7nMrzDBOxzo-18">
          <mxGeometry width="50" height="50" relative="1" as="geometry">
            <mxPoint x="235" y="480" as="sourcePoint" />
            <mxPoint x="149" y="476" as="targetPoint" />
          </mxGeometry>
        </mxCell>
        <mxCell id="e3qIg_uYp7nMrzDBOxzo-40" value="" style="endArrow=classic;html=1;rounded=0;entryX=0;entryY=1;entryDx=0;entryDy=0;" edge="1" parent="1" source="e3qIg_uYp7nMrzDBOxzo-1" target="e3qIg_uYp7nMrzDBOxzo-9">
          <mxGeometry width="50" height="50" relative="1" as="geometry">
            <mxPoint x="40" y="160" as="sourcePoint" />
            <mxPoint x="220" y="160" as="targetPoint" />
          </mxGeometry>
        </mxCell>
        <mxCell id="e3qIg_uYp7nMrzDBOxzo-43" value="" style="endArrow=classic;html=1;rounded=0;entryX=0.5;entryY=0;entryDx=0;entryDy=0;exitX=1;exitY=1;exitDx=0;exitDy=0;fillColor=#dae8fc;strokeColor=#6c8ebf;dashed=1;" edge="1" parent="1" source="e3qIg_uYp7nMrzDBOxzo-16" target="e3qIg_uYp7nMrzDBOxzo-17">
          <mxGeometry width="50" height="50" relative="1" as="geometry">
            <mxPoint x="213" y="461" as="sourcePoint" />
            <mxPoint x="196" y="500" as="targetPoint" />
          </mxGeometry>
        </mxCell>
        <mxCell id="e3qIg_uYp7nMrzDBOxzo-59" value="" style="endArrow=classic;html=1;rounded=0;entryX=1;entryY=0.5;entryDx=0;entryDy=0;" edge="1" parent="1" target="e3qIg_uYp7nMrzDBOxzo-19">
          <mxGeometry width="50" height="50" relative="1" as="geometry">
            <mxPoint x="740" y="430" as="sourcePoint" />
            <mxPoint x="514" y="540" as="targetPoint" />
          </mxGeometry>
        </mxCell>
        <mxCell id="e3qIg_uYp7nMrzDBOxzo-60" value="" style="endArrow=classic;html=1;rounded=0;exitX=0;exitY=0.5;exitDx=0;exitDy=0;fillColor=#dae8fc;strokeColor=#6c8ebf;dashed=1;" edge="1" parent="1" source="e3qIg_uYp7nMrzDBOxzo-19">
          <mxGeometry width="50" height="50" relative="1" as="geometry">
            <mxPoint x="277" y="419" as="sourcePoint" />
            <mxPoint x="280" y="430" as="targetPoint" />
          </mxGeometry>
        </mxCell>
        <mxCell id="e3qIg_uYp7nMrzDBOxzo-62" value="" style="endArrow=classic;html=1;rounded=0;entryX=1;entryY=0.5;entryDx=0;entryDy=0;" edge="1" parent="1" target="e3qIg_uYp7nMrzDBOxzo-9">
          <mxGeometry width="50" height="50" relative="1" as="geometry">
            <mxPoint x="770" y="400" as="sourcePoint" />
            <mxPoint x="235" y="160" as="targetPoint" />
            <Array as="points">
              <mxPoint x="770" />
            </Array>
          </mxGeometry>
        </mxCell>
        <mxCell id="e3qIg_uYp7nMrzDBOxzo-63" value="&amp;lt;&amp;lt;include&amp;gt;&amp;gt;" style="text;html=1;strokeColor=none;fillColor=none;align=center;verticalAlign=middle;whiteSpace=wrap;rounded=0;fontColor=#0025C2;" vertex="1" parent="1">
          <mxGeometry x="425.5" y="425" width="60" height="30" as="geometry" />
        </mxCell>
        <mxCell id="e3qIg_uYp7nMrzDBOxzo-64" value="&amp;lt;&amp;lt;include&amp;gt;&amp;gt;" style="text;html=1;strokeColor=none;fillColor=none;align=center;verticalAlign=middle;whiteSpace=wrap;rounded=0;fontColor=#0025C2;" vertex="1" parent="1">
          <mxGeometry x="124.5" y="460" width="60" height="30" as="geometry" />
        </mxCell>
        <mxCell id="e3qIg_uYp7nMrzDBOxzo-65" value="&amp;lt;&amp;lt;include&amp;gt;&amp;gt;" style="text;html=1;strokeColor=none;fillColor=none;align=center;verticalAlign=middle;whiteSpace=wrap;rounded=0;fontColor=#0025C2;" vertex="1" parent="1">
          <mxGeometry x="190" y="550" width="60" height="30" as="geometry" />
        </mxCell>
        <mxCell id="e3qIg_uYp7nMrzDBOxzo-66" value="&amp;lt;&amp;lt;include&amp;gt;&amp;gt;" style="text;html=1;strokeColor=none;fillColor=none;align=center;verticalAlign=middle;whiteSpace=wrap;rounded=0;fontColor=#0025C2;" vertex="1" parent="1">
          <mxGeometry x="300" y="750" width="60" height="30" as="geometry" />
        </mxCell>
        <mxCell id="e3qIg_uYp7nMrzDBOxzo-67" value="" style="endArrow=classic;html=1;rounded=0;exitX=0.5;exitY=1;exitDx=0;exitDy=0;fillColor=#dae8fc;strokeColor=#6c8ebf;entryX=0.5;entryY=0;entryDx=0;entryDy=0;dashed=1;" edge="1" parent="1" source="e3qIg_uYp7nMrzDBOxzo-19" target="e3qIg_uYp7nMrzDBOxzo-20">
          <mxGeometry width="50" height="50" relative="1" as="geometry">
            <mxPoint x="620" y="440" as="sourcePoint" />
            <mxPoint x="570" y="510" as="targetPoint" />
          </mxGeometry>
        </mxCell>
        <mxCell id="e3qIg_uYp7nMrzDBOxzo-68" value="&amp;lt;&amp;lt;include&amp;gt;&amp;gt;" style="text;html=1;strokeColor=none;fillColor=none;align=center;verticalAlign=middle;whiteSpace=wrap;rounded=0;fontColor=#0025C2;" vertex="1" parent="1">
          <mxGeometry x="550" y="495" width="60" height="30" as="geometry" />
        </mxCell>
        <mxCell id="e3qIg_uYp7nMrzDBOxzo-69" value="" style="endArrow=classic;html=1;rounded=0;exitX=1;exitY=0.5;exitDx=0;exitDy=0;fillColor=#dae8fc;strokeColor=#6c8ebf;entryX=-0.034;entryY=0.379;entryDx=0;entryDy=0;entryPerimeter=0;dashed=1;" edge="1" parent="1" source="e3qIg_uYp7nMrzDBOxzo-20" target="e3qIg_uYp7nMrzDBOxzo-25">
          <mxGeometry width="50" height="50" relative="1" as="geometry">
            <mxPoint x="665" y="470" as="sourcePoint" />
            <mxPoint x="615" y="540" as="targetPoint" />
          </mxGeometry>
        </mxCell>
        <mxCell id="e3qIg_uYp7nMrzDBOxzo-70" value="" style="endArrow=classic;html=1;rounded=0;exitX=1;exitY=1;exitDx=0;exitDy=0;fillColor=#dae8fc;strokeColor=#6c8ebf;entryX=0;entryY=0;entryDx=0;entryDy=0;dashed=1;" edge="1" parent="1" source="e3qIg_uYp7nMrzDBOxzo-20" target="e3qIg_uYp7nMrzDBOxzo-24">
          <mxGeometry width="50" height="50" relative="1" as="geometry">
            <mxPoint x="660" y="570" as="sourcePoint" />
            <mxPoint x="718" y="575" as="targetPoint" />
          </mxGeometry>
        </mxCell>
        <mxCell id="e3qIg_uYp7nMrzDBOxzo-71" value="&amp;lt;&amp;lt;include&amp;gt;&amp;gt;" style="text;html=1;strokeColor=none;fillColor=none;align=center;verticalAlign=middle;whiteSpace=wrap;rounded=0;fontColor=#0025C2;" vertex="1" parent="1">
          <mxGeometry x="700" y="510" width="60" height="30" as="geometry" />
        </mxCell>
        <mxCell id="e3qIg_uYp7nMrzDBOxzo-72" value="&amp;lt;&amp;lt;include&amp;gt;&amp;gt;" style="text;html=1;strokeColor=none;fillColor=none;align=center;verticalAlign=middle;whiteSpace=wrap;rounded=0;fontColor=#0025C2;" vertex="1" parent="1">
          <mxGeometry x="650" y="800" width="60" height="30" as="geometry" />
        </mxCell>
        <mxCell id="e3qIg_uYp7nMrzDBOxzo-80" value="Inventory" style="ellipse;whiteSpace=wrap;html=1;" vertex="1" parent="1">
          <mxGeometry x="250" y="650" width="90" height="60" as="geometry" />
        </mxCell>
        <mxCell id="e3qIg_uYp7nMrzDBOxzo-85" value="&amp;lt;&amp;lt;include&amp;gt;&amp;gt;" style="text;html=1;strokeColor=#A50040;fillColor=#d80073;align=center;verticalAlign=middle;whiteSpace=wrap;rounded=0;fontColor=#ffffff;" vertex="1" parent="1">
          <mxGeometry x="20" y="920" width="60" height="30" as="geometry" />
        </mxCell>
        <mxCell id="e3qIg_uYp7nMrzDBOxzo-88" value="" style="endArrow=classic;html=1;rounded=0;entryX=0;entryY=0.5;entryDx=0;entryDy=0;exitX=0.5;exitY=1;exitDx=0;exitDy=0;fillColor=#d80073;strokeColor=#A50040;" edge="1" parent="1" source="e3qIg_uYp7nMrzDBOxzo-23" target="e3qIg_uYp7nMrzDBOxzo-80">
          <mxGeometry width="50" height="50" relative="1" as="geometry">
            <mxPoint x="200" y="440" as="sourcePoint" />
            <mxPoint x="85" y="476" as="targetPoint" />
            <Array as="points">
              <mxPoint x="154" y="680" />
            </Array>
          </mxGeometry>
        </mxCell>
        <mxCell id="e3qIg_uYp7nMrzDBOxzo-89" style="edgeStyle=orthogonalEdgeStyle;rounded=0;orthogonalLoop=1;jettySize=auto;html=1;entryX=0.5;entryY=0;entryDx=0;entryDy=0;" edge="1" parent="1" target="e3qIg_uYp7nMrzDBOxzo-21">
          <mxGeometry relative="1" as="geometry">
            <mxPoint x="530" y="680" as="sourcePoint" />
            <mxPoint x="350" y="690" as="targetPoint" />
            <Array as="points">
              <mxPoint x="605" y="680" />
            </Array>
          </mxGeometry>
        </mxCell>
        <mxCell id="e3qIg_uYp7nMrzDBOxzo-90" value="" style="endArrow=classic;html=1;rounded=0;exitX=1;exitY=0.5;exitDx=0;exitDy=0;fillColor=#dae8fc;strokeColor=#6c8ebf;entryX=0;entryY=0.5;entryDx=0;entryDy=0;dashed=1;" edge="1" parent="1" source="e3qIg_uYp7nMrzDBOxzo-21" target="e3qIg_uYp7nMrzDBOxzo-22">
          <mxGeometry width="50" height="50" relative="1" as="geometry">
            <mxPoint x="647" y="795.5" as="sourcePoint" />
            <mxPoint x="700" y="840.5" as="targetPoint" />
          </mxGeometry>
        </mxCell>
        <mxCell id="e3qIg_uYp7nMrzDBOxzo-91" value="Purchase" style="ellipse;whiteSpace=wrap;html=1;" vertex="1" parent="1">
          <mxGeometry x="259" y="780" width="71" height="40" as="geometry" />
        </mxCell>
        <mxCell id="e3qIg_uYp7nMrzDBOxzo-92" value="" style="endArrow=classic;html=1;rounded=0;fillColor=#dae8fc;strokeColor=#6c8ebf;exitX=0.5;exitY=1;exitDx=0;exitDy=0;entryX=0.5;entryY=0;entryDx=0;entryDy=0;dashed=1;" edge="1" parent="1" source="e3qIg_uYp7nMrzDBOxzo-80" target="e3qIg_uYp7nMrzDBOxzo-91">
          <mxGeometry width="50" height="50" relative="1" as="geometry">
            <mxPoint x="290" y="740" as="sourcePoint" />
            <mxPoint x="360" y="760" as="targetPoint" />
          </mxGeometry>
        </mxCell>
        <mxCell id="e3qIg_uYp7nMrzDBOxzo-93" value="&amp;lt;&amp;lt;include&amp;gt;&amp;gt;" style="text;html=1;strokeColor=none;fillColor=none;align=center;verticalAlign=middle;whiteSpace=wrap;rounded=0;fontColor=#0025C2;" vertex="1" parent="1">
          <mxGeometry x="314.5" y="470" width="60" height="30" as="geometry" />
        </mxCell>
        <mxCell id="e3qIg_uYp7nMrzDBOxzo-94" value="Vouchers&lt;br&gt;Points" style="ellipse;whiteSpace=wrap;html=1;" vertex="1" parent="1">
          <mxGeometry x="229" y="20" width="71" height="40" as="geometry" />
        </mxCell>
        <mxCell id="e3qIg_uYp7nMrzDBOxzo-95" value="" style="endArrow=classic;html=1;rounded=0;entryX=0;entryY=0;entryDx=0;entryDy=0;exitX=1;exitY=1;exitDx=0;exitDy=0;fillColor=#dae8fc;strokeColor=#6c8ebf;dashed=1;" edge="1" parent="1" source="e3qIg_uYp7nMrzDBOxzo-9" target="e3qIg_uYp7nMrzDBOxzo-94">
          <mxGeometry width="50" height="50" relative="1" as="geometry">
            <mxPoint x="140" y="126" as="sourcePoint" />
            <mxPoint x="105" y="80" as="targetPoint" />
          </mxGeometry>
        </mxCell>
        <mxCell id="e3qIg_uYp7nMrzDBOxzo-99" value="" style="endArrow=classic;html=1;rounded=0;fillColor=#dae8fc;strokeColor=#6c8ebf;exitX=0;exitY=1;exitDx=0;exitDy=0;dashed=1;entryX=0.5;entryY=0;entryDx=0;entryDy=0;" edge="1" parent="1" source="e3qIg_uYp7nMrzDBOxzo-91" target="e3qIg_uYp7nMrzDBOxzo-100">
          <mxGeometry width="50" height="50" relative="1" as="geometry">
            <mxPoint x="270" y="820" as="sourcePoint" />
            <mxPoint x="230" y="850" as="targetPoint" />
          </mxGeometry>
        </mxCell>
        <mxCell id="e3qIg_uYp7nMrzDBOxzo-100" value="New Products" style="ellipse;whiteSpace=wrap;html=1;" vertex="1" parent="1">
          <mxGeometry x="209" y="850" width="71" height="40" as="geometry" />
        </mxCell>
        <mxCell id="e3qIg_uYp7nMrzDBOxzo-101" value="Reorders" style="ellipse;whiteSpace=wrap;html=1;" vertex="1" parent="1">
          <mxGeometry x="309" y="850" width="71" height="40" as="geometry" />
        </mxCell>
        <mxCell id="e3qIg_uYp7nMrzDBOxzo-102" value="" style="endArrow=classic;html=1;rounded=0;fillColor=#dae8fc;strokeColor=#6c8ebf;exitX=1;exitY=1;exitDx=0;exitDy=0;dashed=1;entryX=0.5;entryY=0;entryDx=0;entryDy=0;" edge="1" parent="1" source="e3qIg_uYp7nMrzDBOxzo-91" target="e3qIg_uYp7nMrzDBOxzo-101">
          <mxGeometry width="50" height="50" relative="1" as="geometry">
            <mxPoint x="350" y="840" as="sourcePoint" />
            <mxPoint x="310" y="870" as="targetPoint" />
          </mxGeometry>
        </mxCell>
        <mxCell id="e3qIg_uYp7nMrzDBOxzo-103" value="Manager Labor" style="ellipse;whiteSpace=wrap;html=1;" vertex="1" parent="1">
          <mxGeometry x="569.5" y="880" width="71" height="40" as="geometry" />
        </mxCell>
        <mxCell id="e3qIg_uYp7nMrzDBOxzo-104" value="" style="endArrow=classic;html=1;rounded=0;exitX=0.5;exitY=1;exitDx=0;exitDy=0;fillColor=#dae8fc;strokeColor=#6c8ebf;entryX=0.5;entryY=0;entryDx=0;entryDy=0;dashed=1;" edge="1" parent="1" source="e3qIg_uYp7nMrzDBOxzo-21" target="e3qIg_uYp7nMrzDBOxzo-103">
          <mxGeometry width="50" height="50" relative="1" as="geometry">
            <mxPoint x="660" y="810" as="sourcePoint" />
            <mxPoint x="766" y="810" as="targetPoint" />
          </mxGeometry>
        </mxCell>
        <mxCell id="e3qIg_uYp7nMrzDBOxzo-106" value="Buy Service" style="ellipse;whiteSpace=wrap;html=1;fillColor=#76608a;fontColor=#ffffff;strokeColor=#432D57;" vertex="1" parent="1">
          <mxGeometry x="169" y="90" width="90" height="60" as="geometry" />
        </mxCell>
        <mxCell id="e3qIg_uYp7nMrzDBOxzo-107" value="" style="endArrow=classic;html=1;rounded=0;entryX=0;entryY=1;entryDx=0;entryDy=0;" edge="1" parent="1" target="e3qIg_uYp7nMrzDBOxzo-106">
          <mxGeometry width="50" height="50" relative="1" as="geometry">
            <mxPoint x="70" y="190" as="sourcePoint" />
            <mxPoint x="76" y="31" as="targetPoint" />
          </mxGeometry>
        </mxCell>
        <mxCell id="e3qIg_uYp7nMrzDBOxzo-108" value="" style="endArrow=classic;html=1;rounded=0;entryX=1;entryY=0.5;entryDx=0;entryDy=0;" edge="1" parent="1" target="e3qIg_uYp7nMrzDBOxzo-106">
          <mxGeometry width="50" height="50" relative="1" as="geometry">
            <mxPoint x="750" y="400" as="sourcePoint" />
            <mxPoint x="153" y="10" as="targetPoint" />
            <Array as="points">
              <mxPoint x="680" y="120" />
            </Array>
          </mxGeometry>
        </mxCell>
        <mxCell id="e3qIg_uYp7nMrzDBOxzo-110" value="" style="endArrow=classic;html=1;rounded=0;entryX=0.5;entryY=1;entryDx=0;entryDy=0;exitX=1;exitY=0;exitDx=0;exitDy=0;fillColor=#dae8fc;strokeColor=#6c8ebf;dashed=1;" edge="1" parent="1" source="e3qIg_uYp7nMrzDBOxzo-106" target="e3qIg_uYp7nMrzDBOxzo-94">
          <mxGeometry width="50" height="50" relative="1" as="geometry">
            <mxPoint x="200" y="31" as="sourcePoint" />
            <mxPoint x="248" y="40" as="targetPoint" />
          </mxGeometry>
        </mxCell>
        <mxCell id="e3qIg_uYp7nMrzDBOxzo-111" value="Manager Items" style="ellipse;whiteSpace=wrap;html=1;" vertex="1" parent="1">
          <mxGeometry x="438" y="780" width="71" height="40" as="geometry" />
        </mxCell>
        <mxCell id="e3qIg_uYp7nMrzDBOxzo-112" value="" style="endArrow=classic;html=1;rounded=0;exitX=0;exitY=0.5;exitDx=0;exitDy=0;fillColor=#dae8fc;strokeColor=#6c8ebf;entryX=1;entryY=0.5;entryDx=0;entryDy=0;dashed=1;" edge="1" parent="1" source="e3qIg_uYp7nMrzDBOxzo-21" target="e3qIg_uYp7nMrzDBOxzo-111">
          <mxGeometry width="50" height="50" relative="1" as="geometry">
            <mxPoint x="615" y="840" as="sourcePoint" />
            <mxPoint x="615" y="890" as="targetPoint" />
          </mxGeometry>
        </mxCell>
        <mxCell id="e3qIg_uYp7nMrzDBOxzo-113" value="&amp;lt;&amp;lt;include&amp;gt;&amp;gt;" style="text;html=1;strokeColor=none;fillColor=none;align=center;verticalAlign=middle;whiteSpace=wrap;rounded=0;fontColor=#0025C2;" vertex="1" parent="1">
          <mxGeometry x="500" y="800" width="60" height="30" as="geometry" />
        </mxCell>
        <mxCell id="e3qIg_uYp7nMrzDBOxzo-114" value="&amp;lt;&amp;lt;include&amp;gt;&amp;gt;" style="text;html=1;strokeColor=none;fillColor=none;align=center;verticalAlign=middle;whiteSpace=wrap;rounded=0;fontColor=#0025C2;" vertex="1" parent="1">
          <mxGeometry x="619" y="855" width="60" height="30" as="geometry" />
        </mxCell>
        <mxCell id="e3qIg_uYp7nMrzDBOxzo-115" value="" style="endArrow=classic;html=1;rounded=0;fillColor=#d80073;strokeColor=#A50040;exitX=0;exitY=0.5;exitDx=0;exitDy=0;entryX=0.5;entryY=1;entryDx=0;entryDy=0;" edge="1" parent="1" source="e3qIg_uYp7nMrzDBOxzo-16" target="e3qIg_uYp7nMrzDBOxzo-103">
          <mxGeometry width="50" height="50" relative="1" as="geometry">
            <mxPoint x="160" y="420" as="sourcePoint" />
            <mxPoint x="10" y="950" as="targetPoint" />
            <Array as="points">
              <mxPoint x="10" y="430" />
              <mxPoint x="10" y="960" />
              <mxPoint x="605" y="960" />
            </Array>
          </mxGeometry>
        </mxCell>
        <mxCell id="e3qIg_uYp7nMrzDBOxzo-116" value="&amp;lt;&amp;lt;include&amp;gt;&amp;gt;" style="text;html=1;strokeColor=#A50040;fillColor=#d80073;align=center;verticalAlign=middle;whiteSpace=wrap;rounded=0;fontColor=#ffffff;" vertex="1" parent="1">
          <mxGeometry x="164.5" y="640" width="60" height="30" as="geometry" />
        </mxCell>
        <mxCell id="e3qIg_uYp7nMrzDBOxzo-117" value="Sales Report" style="ellipse;whiteSpace=wrap;html=1;" vertex="1" parent="1">
          <mxGeometry x="639" y="650" width="71" height="40" as="geometry" />
        </mxCell>
        <mxCell id="e3qIg_uYp7nMrzDBOxzo-118" value="" style="endArrow=classic;html=1;rounded=0;exitX=0.5;exitY=1;exitDx=0;exitDy=0;fillColor=#dae8fc;strokeColor=#6c8ebf;entryX=0;entryY=0;entryDx=0;entryDy=0;dashed=1;" edge="1" parent="1" source="e3qIg_uYp7nMrzDBOxzo-20" target="e3qIg_uYp7nMrzDBOxzo-117">
          <mxGeometry width="50" height="50" relative="1" as="geometry">
            <mxPoint x="647" y="591" as="sourcePoint" />
            <mxPoint x="771" y="616" as="targetPoint" />
          </mxGeometry>
        </mxCell>
        <mxCell id="e3qIg_uYp7nMrzDBOxzo-119" value="&amp;lt;&amp;lt;include&amp;gt;&amp;gt;" style="text;html=1;strokeColor=none;fillColor=none;align=center;verticalAlign=middle;whiteSpace=wrap;rounded=0;fontColor=#0025C2;" vertex="1" parent="1">
          <mxGeometry x="710" y="570" width="60" height="30" as="geometry" />
        </mxCell>
        <mxCell id="e3qIg_uYp7nMrzDBOxzo-120" value="&amp;lt;&amp;lt;include&amp;gt;&amp;gt;" style="text;html=1;strokeColor=none;fillColor=none;align=center;verticalAlign=middle;whiteSpace=wrap;rounded=0;fontColor=#0025C2;" vertex="1" parent="1">
          <mxGeometry x="654" y="620" width="60" height="30" as="geometry" />
        </mxCell>
        <mxCell id="e3qIg_uYp7nMrzDBOxzo-121" value="Do we need to include bank?" style="shape=callout;whiteSpace=wrap;html=1;perimeter=calloutPerimeter;position2=0;fillColor=#60a917;fontColor=#ffffff;strokeColor=#2D7600;" vertex="1" parent="1">
          <mxGeometry x="480" y="80" width="120" height="130" as="geometry" />
        </mxCell>
        <mxCell id="e3qIg_uYp7nMrzDBOxzo-123" value="&lt;h1 style=&quot;font-size: 25px;&quot;&gt;&lt;font style=&quot;font-size: 25px;&quot;&gt;Use Case - Garden Centre&lt;/font&gt;&lt;/h1&gt;&lt;p style=&quot;font-size: 15px;&quot;&gt;&lt;font style=&quot;font-size: 15px;&quot;&gt;The use case diagram presents the performance of the role of the main actors like the customer, seller and manager responsible for the system, whose interactions sum up the process of buying one or more generic items and services in a garden centre.&lt;/font&gt;&lt;/p&gt;&lt;p style=&quot;font-size: 15px;&quot;&gt;&lt;font style=&quot;font-size: 15px;&quot;&gt;To the extent that the product or service is purchased by the customer, the system begins through the checkout objects, which in turn relates to the activities like financial transactions and updates of labour and items available.&lt;/font&gt;&lt;/p&gt;&lt;p style=&quot;font-size: 15px;&quot;&gt;&lt;font style=&quot;font-size: 15px;&quot;&gt;Once the previously mentioned stage is completed, through reports it is possible to manage the need to reposition the items sold and allocate available labour.&lt;/font&gt;&lt;/p&gt;" style="text;html=1;strokeColor=none;fillColor=none;spacing=5;spacingTop=-20;whiteSpace=wrap;overflow=hidden;rounded=0;" vertex="1" parent="1">
          <mxGeometry x="110" y="-310" width="691" height="270" as="geometry" />
        </mxCell>
        <mxCell id="e3qIg_uYp7nMrzDBOxzo-128" value="Sales" style="swimlane;fontStyle=0;childLayout=stackLayout;horizontal=1;startSize=26;fillColor=none;horizontalStack=0;resizeParent=1;resizeParentMax=0;resizeLast=0;collapsible=1;marginBottom=0;whiteSpace=wrap;html=1;" vertex="1" parent="1">
          <mxGeometry x="182.5" y="1730" width="110" height="104" as="geometry" />
        </mxCell>
        <mxCell id="e3qIg_uYp7nMrzDBOxzo-129" value="date" style="text;strokeColor=none;fillColor=none;align=left;verticalAlign=top;spacingLeft=4;spacingRight=4;overflow=hidden;rotatable=0;points=[[0,0.5],[1,0.5]];portConstraint=eastwest;whiteSpace=wrap;html=1;" vertex="1" parent="e3qIg_uYp7nMrzDBOxzo-128">
          <mxGeometry y="26" width="110" height="26" as="geometry" />
        </mxCell>
        <mxCell id="e3qIg_uYp7nMrzDBOxzo-130" value="time" style="text;strokeColor=none;fillColor=none;align=left;verticalAlign=top;spacingLeft=4;spacingRight=4;overflow=hidden;rotatable=0;points=[[0,0.5],[1,0.5]];portConstraint=eastwest;whiteSpace=wrap;html=1;" vertex="1" parent="e3qIg_uYp7nMrzDBOxzo-128">
          <mxGeometry y="52" width="110" height="26" as="geometry" />
        </mxCell>
        <mxCell id="e3qIg_uYp7nMrzDBOxzo-131" value="+ field: type" style="text;strokeColor=none;fillColor=none;align=left;verticalAlign=top;spacingLeft=4;spacingRight=4;overflow=hidden;rotatable=0;points=[[0,0.5],[1,0.5]];portConstraint=eastwest;whiteSpace=wrap;html=1;" vertex="1" parent="e3qIg_uYp7nMrzDBOxzo-128">
          <mxGeometry y="78" width="110" height="26" as="geometry" />
        </mxCell>
        <mxCell id="e3qIg_uYp7nMrzDBOxzo-132" value="Garden_Centra" style="swimlane;fontStyle=0;childLayout=stackLayout;horizontal=1;startSize=26;fillColor=none;horizontalStack=0;resizeParent=1;resizeParentMax=0;resizeLast=0;collapsible=1;marginBottom=0;whiteSpace=wrap;html=1;" vertex="1" parent="1">
          <mxGeometry x="309" y="1251" width="140" height="78" as="geometry" />
        </mxCell>
        <mxCell id="e3qIg_uYp7nMrzDBOxzo-133" value="address" style="text;strokeColor=none;fillColor=none;align=left;verticalAlign=top;spacingLeft=4;spacingRight=4;overflow=hidden;rotatable=0;points=[[0,0.5],[1,0.5]];portConstraint=eastwest;whiteSpace=wrap;html=1;" vertex="1" parent="e3qIg_uYp7nMrzDBOxzo-132">
          <mxGeometry y="26" width="140" height="26" as="geometry" />
        </mxCell>
        <mxCell id="e3qIg_uYp7nMrzDBOxzo-134" value="name" style="text;strokeColor=none;fillColor=none;align=left;verticalAlign=top;spacingLeft=4;spacingRight=4;overflow=hidden;rotatable=0;points=[[0,0.5],[1,0.5]];portConstraint=eastwest;whiteSpace=wrap;html=1;" vertex="1" parent="e3qIg_uYp7nMrzDBOxzo-132">
          <mxGeometry y="52" width="140" height="26" as="geometry" />
        </mxCell>
        <mxCell id="e3qIg_uYp7nMrzDBOxzo-136" value="Labour_Habilities" style="swimlane;fontStyle=0;childLayout=stackLayout;horizontal=1;startSize=26;fillColor=none;horizontalStack=0;resizeParent=1;resizeParentMax=0;resizeLast=0;collapsible=1;marginBottom=0;whiteSpace=wrap;html=1;" vertex="1" parent="1">
          <mxGeometry x="440" y="988" width="140" height="52" as="geometry" />
        </mxCell>
        <mxCell id="e3qIg_uYp7nMrzDBOxzo-137" value="+ field: type" style="text;strokeColor=none;fillColor=none;align=left;verticalAlign=top;spacingLeft=4;spacingRight=4;overflow=hidden;rotatable=0;points=[[0,0.5],[1,0.5]];portConstraint=eastwest;whiteSpace=wrap;html=1;" vertex="1" parent="e3qIg_uYp7nMrzDBOxzo-136">
          <mxGeometry y="26" width="140" height="26" as="geometry" />
        </mxCell>
        <mxCell id="e3qIg_uYp7nMrzDBOxzo-140" value="Product_Catalog" style="swimlane;fontStyle=0;childLayout=stackLayout;horizontal=1;startSize=26;fillColor=none;horizontalStack=0;resizeParent=1;resizeParentMax=0;resizeLast=0;collapsible=1;marginBottom=0;whiteSpace=wrap;html=1;" vertex="1" parent="1">
          <mxGeometry x="72.5" y="1160" width="140" height="52" as="geometry" />
        </mxCell>
        <mxCell id="e3qIg_uYp7nMrzDBOxzo-143" value="+ field: type" style="text;strokeColor=none;fillColor=none;align=left;verticalAlign=top;spacingLeft=4;spacingRight=4;overflow=hidden;rotatable=0;points=[[0,0.5],[1,0.5]];portConstraint=eastwest;whiteSpace=wrap;html=1;" vertex="1" parent="e3qIg_uYp7nMrzDBOxzo-140">
          <mxGeometry y="26" width="140" height="26" as="geometry" />
        </mxCell>
        <mxCell id="e3qIg_uYp7nMrzDBOxzo-144" value="Product_Specification" style="swimlane;fontStyle=0;childLayout=stackLayout;horizontal=1;startSize=26;fillColor=none;horizontalStack=0;resizeParent=1;resizeParentMax=0;resizeLast=0;collapsible=1;marginBottom=0;whiteSpace=wrap;html=1;" vertex="1" parent="1">
          <mxGeometry x="61" y="1262" width="160" height="52" as="geometry" />
        </mxCell>
        <mxCell id="e3qIg_uYp7nMrzDBOxzo-147" value="+ field: type" style="text;strokeColor=none;fillColor=none;align=left;verticalAlign=top;spacingLeft=4;spacingRight=4;overflow=hidden;rotatable=0;points=[[0,0.5],[1,0.5]];portConstraint=eastwest;whiteSpace=wrap;html=1;" vertex="1" parent="e3qIg_uYp7nMrzDBOxzo-144">
          <mxGeometry y="26" width="160" height="26" as="geometry" />
        </mxCell>
        <mxCell id="e3qIg_uYp7nMrzDBOxzo-148" value="Item" style="swimlane;fontStyle=0;childLayout=stackLayout;horizontal=1;startSize=26;fillColor=none;horizontalStack=0;resizeParent=1;resizeParentMax=0;resizeLast=0;collapsible=1;marginBottom=0;whiteSpace=wrap;html=1;" vertex="1" parent="1">
          <mxGeometry x="70" y="1370" width="140" height="52" as="geometry" />
        </mxCell>
        <mxCell id="e3qIg_uYp7nMrzDBOxzo-149" value="code" style="text;strokeColor=none;fillColor=none;align=left;verticalAlign=top;spacingLeft=4;spacingRight=4;overflow=hidden;rotatable=0;points=[[0,0.5],[1,0.5]];portConstraint=eastwest;whiteSpace=wrap;html=1;" vertex="1" parent="e3qIg_uYp7nMrzDBOxzo-148">
          <mxGeometry y="26" width="140" height="26" as="geometry" />
        </mxCell>
        <mxCell id="e3qIg_uYp7nMrzDBOxzo-152" value="Sales_Line" style="swimlane;fontStyle=0;childLayout=stackLayout;horizontal=1;startSize=26;fillColor=none;horizontalStack=0;resizeParent=1;resizeParentMax=0;resizeLast=0;collapsible=1;marginBottom=0;whiteSpace=wrap;html=1;" vertex="1" parent="1">
          <mxGeometry x="269" y="1460" width="110" height="130" as="geometry" />
        </mxCell>
        <mxCell id="e3qIg_uYp7nMrzDBOxzo-153" value="item" style="text;strokeColor=none;fillColor=none;align=left;verticalAlign=top;spacingLeft=4;spacingRight=4;overflow=hidden;rotatable=0;points=[[0,0.5],[1,0.5]];portConstraint=eastwest;whiteSpace=wrap;html=1;" vertex="1" parent="e3qIg_uYp7nMrzDBOxzo-152">
          <mxGeometry y="26" width="110" height="26" as="geometry" />
        </mxCell>
        <mxCell id="e3qIg_uYp7nMrzDBOxzo-154" value="qty" style="text;strokeColor=none;fillColor=none;align=left;verticalAlign=top;spacingLeft=4;spacingRight=4;overflow=hidden;rotatable=0;points=[[0,0.5],[1,0.5]];portConstraint=eastwest;whiteSpace=wrap;html=1;" vertex="1" parent="e3qIg_uYp7nMrzDBOxzo-152">
          <mxGeometry y="52" width="110" height="26" as="geometry" />
        </mxCell>
        <mxCell id="e3qIg_uYp7nMrzDBOxzo-155" value="labour" style="text;strokeColor=none;fillColor=none;align=left;verticalAlign=top;spacingLeft=4;spacingRight=4;overflow=hidden;rotatable=0;points=[[0,0.5],[1,0.5]];portConstraint=eastwest;whiteSpace=wrap;html=1;" vertex="1" parent="e3qIg_uYp7nMrzDBOxzo-152">
          <mxGeometry y="78" width="110" height="26" as="geometry" />
        </mxCell>
        <mxCell id="e3qIg_uYp7nMrzDBOxzo-178" value="hours" style="text;strokeColor=none;fillColor=none;align=left;verticalAlign=top;spacingLeft=4;spacingRight=4;overflow=hidden;rotatable=0;points=[[0,0.5],[1,0.5]];portConstraint=eastwest;whiteSpace=wrap;html=1;" vertex="1" parent="e3qIg_uYp7nMrzDBOxzo-152">
          <mxGeometry y="104" width="110" height="26" as="geometry" />
        </mxCell>
        <mxCell id="e3qIg_uYp7nMrzDBOxzo-156" style="edgeStyle=orthogonalEdgeStyle;rounded=0;orthogonalLoop=1;jettySize=auto;html=1;exitX=1;exitY=0.5;exitDx=0;exitDy=0;" edge="1" parent="e3qIg_uYp7nMrzDBOxzo-152" source="e3qIg_uYp7nMrzDBOxzo-154" target="e3qIg_uYp7nMrzDBOxzo-154">
          <mxGeometry relative="1" as="geometry" />
        </mxCell>
        <mxCell id="e3qIg_uYp7nMrzDBOxzo-166" value="Customer" style="swimlane;fontStyle=0;childLayout=stackLayout;horizontal=1;startSize=26;fillColor=none;horizontalStack=0;resizeParent=1;resizeParentMax=0;resizeLast=0;collapsible=1;marginBottom=0;whiteSpace=wrap;html=1;" vertex="1" parent="1">
          <mxGeometry x="14.5" y="1834" width="110" height="52" as="geometry" />
        </mxCell>
        <mxCell id="e3qIg_uYp7nMrzDBOxzo-169" value="+ field: type" style="text;strokeColor=none;fillColor=none;align=left;verticalAlign=top;spacingLeft=4;spacingRight=4;overflow=hidden;rotatable=0;points=[[0,0.5],[1,0.5]];portConstraint=eastwest;whiteSpace=wrap;html=1;" vertex="1" parent="e3qIg_uYp7nMrzDBOxzo-166">
          <mxGeometry y="26" width="110" height="26" as="geometry" />
        </mxCell>
        <mxCell id="e3qIg_uYp7nMrzDBOxzo-172" value="" style="endArrow=none;html=1;rounded=0;entryX=0.25;entryY=0;entryDx=0;entryDy=0;exitX=0.5;exitY=0;exitDx=0;exitDy=0;" edge="1" parent="1" source="e3qIg_uYp7nMrzDBOxzo-166" target="e3qIg_uYp7nMrzDBOxzo-128">
          <mxGeometry width="50" height="50" relative="1" as="geometry">
            <mxPoint x="160" y="1760" as="sourcePoint" />
            <mxPoint x="380" y="1760" as="targetPoint" />
            <Array as="points">
              <mxPoint x="70" y="1700" />
              <mxPoint x="210" y="1700" />
            </Array>
          </mxGeometry>
        </mxCell>
        <mxCell id="e3qIg_uYp7nMrzDBOxzo-173" value="initiated-by" style="text;html=1;strokeColor=none;fillColor=none;align=center;verticalAlign=middle;whiteSpace=wrap;rounded=0;" vertex="1" parent="1">
          <mxGeometry x="60" y="1700" width="80" height="30" as="geometry" />
        </mxCell>
        <mxCell id="e3qIg_uYp7nMrzDBOxzo-162" value="Payment" style="swimlane;fontStyle=0;childLayout=stackLayout;horizontal=1;startSize=26;fillColor=none;horizontalStack=0;resizeParent=1;resizeParentMax=0;resizeLast=0;collapsible=1;marginBottom=0;whiteSpace=wrap;html=1;" vertex="1" parent="1">
          <mxGeometry x="14.5" y="1579" width="110" height="78" as="geometry" />
        </mxCell>
        <mxCell id="e3qIg_uYp7nMrzDBOxzo-163" value="amount" style="text;strokeColor=none;fillColor=none;align=left;verticalAlign=top;spacingLeft=4;spacingRight=4;overflow=hidden;rotatable=0;points=[[0,0.5],[1,0.5]];portConstraint=eastwest;whiteSpace=wrap;html=1;" vertex="1" parent="e3qIg_uYp7nMrzDBOxzo-162">
          <mxGeometry y="26" width="110" height="26" as="geometry" />
        </mxCell>
        <mxCell id="e3qIg_uYp7nMrzDBOxzo-165" value="+ field: type" style="text;strokeColor=none;fillColor=none;align=left;verticalAlign=top;spacingLeft=4;spacingRight=4;overflow=hidden;rotatable=0;points=[[0,0.5],[1,0.5]];portConstraint=eastwest;whiteSpace=wrap;html=1;" vertex="1" parent="e3qIg_uYp7nMrzDBOxzo-162">
          <mxGeometry y="52" width="110" height="26" as="geometry" />
        </mxCell>
        <mxCell id="e3qIg_uYp7nMrzDBOxzo-174" value="" style="endArrow=none;html=1;rounded=0;entryX=0.25;entryY=0;entryDx=0;entryDy=0;exitX=0.998;exitY=-0.068;exitDx=0;exitDy=0;exitPerimeter=0;" edge="1" parent="1" source="e3qIg_uYp7nMrzDBOxzo-165">
          <mxGeometry width="50" height="50" relative="1" as="geometry">
            <mxPoint x="128.5" y="1834" as="sourcePoint" />
            <mxPoint x="269.5" y="1730" as="targetPoint" />
            <Array as="points">
              <mxPoint x="270" y="1630" />
              <mxPoint x="269.5" y="1700" />
            </Array>
          </mxGeometry>
        </mxCell>
        <mxCell id="e3qIg_uYp7nMrzDBOxzo-175" value="paid-by" style="text;html=1;strokeColor=none;fillColor=none;align=center;verticalAlign=middle;whiteSpace=wrap;rounded=0;" vertex="1" parent="1">
          <mxGeometry x="189" y="1630" width="80" height="30" as="geometry" />
        </mxCell>
        <mxCell id="e3qIg_uYp7nMrzDBOxzo-177" value="" style="endArrow=none;html=1;rounded=0;exitX=1;exitY=0.5;exitDx=0;exitDy=0;entryX=0.473;entryY=1;entryDx=0;entryDy=0;entryPerimeter=0;" edge="1" parent="1" source="e3qIg_uYp7nMrzDBOxzo-129" target="e3qIg_uYp7nMrzDBOxzo-178">
          <mxGeometry width="50" height="50" relative="1" as="geometry">
            <mxPoint x="260" y="1620" as="sourcePoint" />
            <mxPoint x="330" y="1610" as="targetPoint" />
            <Array as="points">
              <mxPoint x="320" y="1769" />
            </Array>
          </mxGeometry>
        </mxCell>
        <mxCell id="e3qIg_uYp7nMrzDBOxzo-179" value="1" style="text;html=1;strokeColor=none;fillColor=none;align=center;verticalAlign=middle;whiteSpace=wrap;rounded=0;" vertex="1" parent="1">
          <mxGeometry x="274.5" y="1770" width="60" height="30" as="geometry" />
        </mxCell>
        <mxCell id="e3qIg_uYp7nMrzDBOxzo-180" value="1...n" style="text;html=1;strokeColor=none;fillColor=none;align=center;verticalAlign=middle;whiteSpace=wrap;rounded=0;" vertex="1" parent="1">
          <mxGeometry x="309" y="1590" width="60" height="30" as="geometry" />
        </mxCell>
        <mxCell id="e3qIg_uYp7nMrzDBOxzo-181" value="labour" style="swimlane;fontStyle=0;childLayout=stackLayout;horizontal=1;startSize=26;fillColor=none;horizontalStack=0;resizeParent=1;resizeParentMax=0;resizeLast=0;collapsible=1;marginBottom=0;whiteSpace=wrap;html=1;" vertex="1" parent="1">
          <mxGeometry x="53" y="1040" width="107" height="52" as="geometry" />
        </mxCell>
        <mxCell id="e3qIg_uYp7nMrzDBOxzo-182" value="id" style="text;strokeColor=none;fillColor=none;align=left;verticalAlign=top;spacingLeft=4;spacingRight=4;overflow=hidden;rotatable=0;points=[[0,0.5],[1,0.5]];portConstraint=eastwest;whiteSpace=wrap;html=1;" vertex="1" parent="e3qIg_uYp7nMrzDBOxzo-181">
          <mxGeometry y="26" width="107" height="26" as="geometry" />
        </mxCell>
        <mxCell id="e3qIg_uYp7nMrzDBOxzo-183" value="" style="endArrow=none;html=1;rounded=0;entryX=0;entryY=0.5;entryDx=0;entryDy=0;exitX=0;exitY=0.5;exitDx=0;exitDy=0;" edge="1" parent="1" source="e3qIg_uYp7nMrzDBOxzo-153" target="e3qIg_uYp7nMrzDBOxzo-148">
          <mxGeometry width="50" height="50" relative="1" as="geometry">
            <mxPoint x="260" y="1500" as="sourcePoint" />
            <mxPoint x="40" y="1370" as="targetPoint" />
            <Array as="points">
              <mxPoint x="40" y="1500" />
              <mxPoint x="40" y="1396" />
            </Array>
          </mxGeometry>
        </mxCell>
        <mxCell id="e3qIg_uYp7nMrzDBOxzo-184" value="" style="endArrow=none;html=1;rounded=0;entryX=-0.014;entryY=0;entryDx=0;entryDy=0;exitX=0;exitY=0.5;exitDx=0;exitDy=0;entryPerimeter=0;" edge="1" parent="1" target="e3qIg_uYp7nMrzDBOxzo-182">
          <mxGeometry width="50" height="50" relative="1" as="geometry">
            <mxPoint x="269" y="1553" as="sourcePoint" />
            <mxPoint x="70" y="1430" as="targetPoint" />
            <Array as="points">
              <mxPoint x="10" y="1554" />
              <mxPoint x="10" y="1066" />
            </Array>
          </mxGeometry>
        </mxCell>
        <mxCell id="e3qIg_uYp7nMrzDBOxzo-185" value="1" style="text;html=1;strokeColor=none;fillColor=none;align=center;verticalAlign=middle;whiteSpace=wrap;rounded=0;" vertex="1" parent="1">
          <mxGeometry x="212.5" y="1470" width="80" height="30" as="geometry" />
        </mxCell>
        <mxCell id="e3qIg_uYp7nMrzDBOxzo-186" value="1" style="text;html=1;strokeColor=none;fillColor=none;align=center;verticalAlign=middle;whiteSpace=wrap;rounded=0;" vertex="1" parent="1">
          <mxGeometry x="11" y="1394" width="80" height="30" as="geometry" />
        </mxCell>
        <mxCell id="e3qIg_uYp7nMrzDBOxzo-188" value="1" style="text;html=1;strokeColor=none;fillColor=none;align=center;verticalAlign=middle;whiteSpace=wrap;rounded=0;" vertex="1" parent="1">
          <mxGeometry x="215.5" y="1549" width="80" height="30" as="geometry" />
        </mxCell>
        <mxCell id="e3qIg_uYp7nMrzDBOxzo-189" value="1" style="text;html=1;strokeColor=none;fillColor=none;align=center;verticalAlign=middle;whiteSpace=wrap;rounded=0;" vertex="1" parent="1">
          <mxGeometry x="-4" y="1039" width="80" height="30" as="geometry" />
        </mxCell>
        <mxCell id="e3qIg_uYp7nMrzDBOxzo-190" value="" style="endArrow=none;html=1;rounded=0;exitX=0.5;exitY=1.038;exitDx=0;exitDy=0;exitPerimeter=0;entryX=0.506;entryY=-0.035;entryDx=0;entryDy=0;entryPerimeter=0;" edge="1" parent="1" source="e3qIg_uYp7nMrzDBOxzo-147" target="e3qIg_uYp7nMrzDBOxzo-148">
          <mxGeometry width="50" height="50" relative="1" as="geometry">
            <mxPoint x="180" y="1320" as="sourcePoint" />
            <mxPoint x="140" y="1360" as="targetPoint" />
            <Array as="points" />
          </mxGeometry>
        </mxCell>
        <mxCell id="e3qIg_uYp7nMrzDBOxzo-191" value="" style="endArrow=none;html=1;rounded=0;exitX=0;exitY=0.5;exitDx=0;exitDy=0;" edge="1" parent="1">
          <mxGeometry width="50" height="50" relative="1" as="geometry">
            <mxPoint x="590" y="1601.5" as="sourcePoint" />
            <mxPoint x="470" y="1608.5" as="targetPoint" />
            <Array as="points" />
          </mxGeometry>
        </mxCell>
        <mxCell id="e3qIg_uYp7nMrzDBOxzo-192" value="" style="endArrow=none;html=1;rounded=0;exitX=0;exitY=0.5;exitDx=0;exitDy=0;" edge="1" parent="1">
          <mxGeometry width="50" height="50" relative="1" as="geometry">
            <mxPoint x="715" y="1680" as="sourcePoint" />
            <mxPoint x="595" y="1687" as="targetPoint" />
            <Array as="points" />
          </mxGeometry>
        </mxCell>
        <mxCell id="e3qIg_uYp7nMrzDBOxzo-193" value="" style="endArrow=none;html=1;rounded=0;exitX=0.5;exitY=0;exitDx=0;exitDy=0;entryX=1;entryY=0.5;entryDx=0;entryDy=0;" edge="1" parent="1" source="e3qIg_uYp7nMrzDBOxzo-215" target="e3qIg_uYp7nMrzDBOxzo-228">
          <mxGeometry width="50" height="50" relative="1" as="geometry">
            <mxPoint x="770" y="1259" as="sourcePoint" />
            <mxPoint x="650" y="1266" as="targetPoint" />
            <Array as="points">
              <mxPoint x="745" y="1292" />
            </Array>
          </mxGeometry>
        </mxCell>
        <mxCell id="e3qIg_uYp7nMrzDBOxzo-195" value="describes" style="text;html=1;strokeColor=none;fillColor=none;align=center;verticalAlign=middle;whiteSpace=wrap;rounded=0;" vertex="1" parent="1">
          <mxGeometry x="133" y="1327" width="80" height="30" as="geometry" />
        </mxCell>
        <mxCell id="e3qIg_uYp7nMrzDBOxzo-196" value="1" style="text;html=1;strokeColor=none;fillColor=none;align=center;verticalAlign=middle;whiteSpace=wrap;rounded=0;" vertex="1" parent="1">
          <mxGeometry x="89" y="1314" width="80" height="30" as="geometry" />
        </mxCell>
        <mxCell id="e3qIg_uYp7nMrzDBOxzo-197" value="1..n" style="text;html=1;strokeColor=none;fillColor=none;align=center;verticalAlign=middle;whiteSpace=wrap;rounded=0;" vertex="1" parent="1">
          <mxGeometry x="89" y="1344" width="80" height="30" as="geometry" />
        </mxCell>
        <mxCell id="e3qIg_uYp7nMrzDBOxzo-198" value="" style="endArrow=none;html=1;rounded=0;entryX=1.019;entryY=0.218;entryDx=0;entryDy=0;entryPerimeter=0;" edge="1" parent="1" target="e3qIg_uYp7nMrzDBOxzo-149">
          <mxGeometry width="50" height="50" relative="1" as="geometry">
            <mxPoint x="350" y="1330" as="sourcePoint" />
            <mxPoint x="314.5" y="1374" as="targetPoint" />
            <Array as="points">
              <mxPoint x="350" y="1402" />
            </Array>
          </mxGeometry>
        </mxCell>
        <mxCell id="e3qIg_uYp7nMrzDBOxzo-199" value="1..n" style="text;html=1;strokeColor=none;fillColor=none;align=center;verticalAlign=middle;whiteSpace=wrap;rounded=0;" vertex="1" parent="1">
          <mxGeometry x="182.5" y="1374" width="80" height="30" as="geometry" />
        </mxCell>
        <mxCell id="e3qIg_uYp7nMrzDBOxzo-201" value="" style="endArrow=none;html=1;rounded=0;exitX=0.25;exitY=0;exitDx=0;exitDy=0;entryX=0.503;entryY=-0.031;entryDx=0;entryDy=0;entryPerimeter=0;" edge="1" parent="1" source="e3qIg_uYp7nMrzDBOxzo-132" target="e3qIg_uYp7nMrzDBOxzo-140">
          <mxGeometry width="50" height="50" relative="1" as="geometry">
            <mxPoint x="391" y="1069" as="sourcePoint" />
            <mxPoint x="221" y="1142" as="targetPoint" />
            <Array as="points">
              <mxPoint x="344" y="1140" />
              <mxPoint x="143" y="1140" />
            </Array>
          </mxGeometry>
        </mxCell>
        <mxCell id="e3qIg_uYp7nMrzDBOxzo-202" value="used-by" style="text;html=1;strokeColor=none;fillColor=none;align=center;verticalAlign=middle;whiteSpace=wrap;rounded=0;" vertex="1" parent="1">
          <mxGeometry x="230" y="1110" width="80" height="30" as="geometry" />
        </mxCell>
        <mxCell id="e3qIg_uYp7nMrzDBOxzo-203" value="Conceptual&lt;br&gt;Model" style="shape=callout;whiteSpace=wrap;html=1;perimeter=calloutPerimeter;position2=1;fillColor=#60a917;fontColor=#ffffff;strokeColor=#2D7600;" vertex="1" parent="1">
          <mxGeometry x="-124" y="1730" width="120" height="130" as="geometry" />
        </mxCell>
        <mxCell id="e3qIg_uYp7nMrzDBOxzo-204" value="" style="endArrow=none;html=1;rounded=0;exitX=0.491;exitY=1.088;exitDx=0;exitDy=0;entryX=0.5;entryY=0;entryDx=0;entryDy=0;exitPerimeter=0;" edge="1" parent="1" source="e3qIg_uYp7nMrzDBOxzo-143" target="e3qIg_uYp7nMrzDBOxzo-144">
          <mxGeometry width="50" height="50" relative="1" as="geometry">
            <mxPoint x="425.5" y="1370" as="sourcePoint" />
            <mxPoint x="305.5" y="1377" as="targetPoint" />
            <Array as="points" />
          </mxGeometry>
        </mxCell>
        <mxCell id="e3qIg_uYp7nMrzDBOxzo-205" value="1" style="text;html=1;strokeColor=none;fillColor=none;align=center;verticalAlign=middle;whiteSpace=wrap;rounded=0;" vertex="1" parent="1">
          <mxGeometry x="89" y="1212" width="80" height="30" as="geometry" />
        </mxCell>
        <mxCell id="e3qIg_uYp7nMrzDBOxzo-207" value="1..n" style="text;html=1;strokeColor=none;fillColor=none;align=center;verticalAlign=middle;whiteSpace=wrap;rounded=0;" vertex="1" parent="1">
          <mxGeometry x="89" y="1236" width="80" height="30" as="geometry" />
        </mxCell>
        <mxCell id="e3qIg_uYp7nMrzDBOxzo-208" value="contains" style="text;html=1;strokeColor=none;fillColor=none;align=center;verticalAlign=middle;whiteSpace=wrap;rounded=0;" vertex="1" parent="1">
          <mxGeometry x="128.5" y="1221" width="80" height="30" as="geometry" />
        </mxCell>
        <mxCell id="e3qIg_uYp7nMrzDBOxzo-209" value="" style="endArrow=none;html=1;rounded=0;exitX=0.25;exitY=0;exitDx=0;exitDy=0;entryX=0.984;entryY=-0.011;entryDx=0;entryDy=0;entryPerimeter=0;" edge="1" parent="1" target="e3qIg_uYp7nMrzDBOxzo-182">
          <mxGeometry width="50" height="50" relative="1" as="geometry">
            <mxPoint x="404" y="1251" as="sourcePoint" />
            <mxPoint x="203" y="1158" as="targetPoint" />
            <Array as="points">
              <mxPoint x="404" y="1066" />
            </Array>
          </mxGeometry>
        </mxCell>
        <mxCell id="e3qIg_uYp7nMrzDBOxzo-210" value="1" style="text;html=1;strokeColor=none;fillColor=none;align=center;verticalAlign=middle;whiteSpace=wrap;rounded=0;" vertex="1" parent="1">
          <mxGeometry x="379" y="1221" width="80" height="30" as="geometry" />
        </mxCell>
        <mxCell id="e3qIg_uYp7nMrzDBOxzo-211" value="1..n" style="text;html=1;strokeColor=none;fillColor=none;align=center;verticalAlign=middle;whiteSpace=wrap;rounded=0;" vertex="1" parent="1">
          <mxGeometry x="143" y="1039" width="80" height="30" as="geometry" />
        </mxCell>
        <mxCell id="e3qIg_uYp7nMrzDBOxzo-212" value="" style="endArrow=none;html=1;rounded=0;entryX=0.415;entryY=-0.018;entryDx=0;entryDy=0;entryPerimeter=0;exitX=0;exitY=0.5;exitDx=0;exitDy=0;" edge="1" parent="1" source="e3qIg_uYp7nMrzDBOxzo-137" target="e3qIg_uYp7nMrzDBOxzo-181">
          <mxGeometry width="50" height="50" relative="1" as="geometry">
            <mxPoint x="450" y="1070" as="sourcePoint" />
            <mxPoint x="168" y="1076" as="targetPoint" />
            <Array as="points">
              <mxPoint x="400" y="1027" />
              <mxPoint x="400" y="1000" />
              <mxPoint x="97" y="1000" />
            </Array>
          </mxGeometry>
        </mxCell>
        <mxCell id="e3qIg_uYp7nMrzDBOxzo-213" value="1" style="text;html=1;strokeColor=none;fillColor=none;align=center;verticalAlign=middle;whiteSpace=wrap;rounded=0;" vertex="1" parent="1">
          <mxGeometry x="46.5" y="1008" width="80" height="30" as="geometry" />
        </mxCell>
        <mxCell id="e3qIg_uYp7nMrzDBOxzo-214" value="1..n" style="text;html=1;strokeColor=none;fillColor=none;align=center;verticalAlign=middle;whiteSpace=wrap;rounded=0;" vertex="1" parent="1">
          <mxGeometry x="380" y="999" width="80" height="30" as="geometry" />
        </mxCell>
        <mxCell id="e3qIg_uYp7nMrzDBOxzo-215" value="Manager" style="swimlane;fontStyle=0;childLayout=stackLayout;horizontal=1;startSize=26;fillColor=none;horizontalStack=0;resizeParent=1;resizeParentMax=0;resizeLast=0;collapsible=1;marginBottom=0;whiteSpace=wrap;html=1;" vertex="1" parent="1">
          <mxGeometry x="675" y="1459" width="140" height="52" as="geometry" />
        </mxCell>
        <mxCell id="e3qIg_uYp7nMrzDBOxzo-217" value="admin_user" style="text;strokeColor=none;fillColor=none;align=left;verticalAlign=top;spacingLeft=4;spacingRight=4;overflow=hidden;rotatable=0;points=[[0,0.5],[1,0.5]];portConstraint=eastwest;whiteSpace=wrap;html=1;" vertex="1" parent="e3qIg_uYp7nMrzDBOxzo-215">
          <mxGeometry y="26" width="140" height="26" as="geometry" />
        </mxCell>
        <mxCell id="e3qIg_uYp7nMrzDBOxzo-218" value="Saller" style="swimlane;fontStyle=0;childLayout=stackLayout;horizontal=1;startSize=26;fillColor=none;horizontalStack=0;resizeParent=1;resizeParentMax=0;resizeLast=0;collapsible=1;marginBottom=0;whiteSpace=wrap;html=1;" vertex="1" parent="1">
          <mxGeometry x="460" y="1460" width="140" height="52" as="geometry" />
        </mxCell>
        <mxCell id="e3qIg_uYp7nMrzDBOxzo-219" value="user_id" style="text;strokeColor=none;fillColor=none;align=left;verticalAlign=top;spacingLeft=4;spacingRight=4;overflow=hidden;rotatable=0;points=[[0,0.5],[1,0.5]];portConstraint=eastwest;whiteSpace=wrap;html=1;" vertex="1" parent="e3qIg_uYp7nMrzDBOxzo-218">
          <mxGeometry y="26" width="140" height="26" as="geometry" />
        </mxCell>
        <mxCell id="e3qIg_uYp7nMrzDBOxzo-220" value="" style="endArrow=none;html=1;rounded=0;exitX=0.5;exitY=0;exitDx=0;exitDy=0;entryX=0.684;entryY=1.038;entryDx=0;entryDy=0;entryPerimeter=0;" edge="1" parent="1" source="e3qIg_uYp7nMrzDBOxzo-218" target="e3qIg_uYp7nMrzDBOxzo-134">
          <mxGeometry width="50" height="50" relative="1" as="geometry">
            <mxPoint x="600" y="1611.5" as="sourcePoint" />
            <mxPoint x="490" y="1380" as="targetPoint" />
            <Array as="points">
              <mxPoint x="530" y="1430" />
              <mxPoint x="405" y="1430" />
            </Array>
          </mxGeometry>
        </mxCell>
        <mxCell id="e3qIg_uYp7nMrzDBOxzo-221" value="1" style="text;html=1;strokeColor=none;fillColor=none;align=center;verticalAlign=middle;whiteSpace=wrap;rounded=0;" vertex="1" parent="1">
          <mxGeometry x="299.5" y="1324" width="80" height="30" as="geometry" />
        </mxCell>
        <mxCell id="e3qIg_uYp7nMrzDBOxzo-222" value="1" style="text;html=1;strokeColor=none;fillColor=none;align=center;verticalAlign=middle;whiteSpace=wrap;rounded=0;" vertex="1" parent="1">
          <mxGeometry x="375.5" y="1324" width="80" height="30" as="geometry" />
        </mxCell>
        <mxCell id="e3qIg_uYp7nMrzDBOxzo-223" value="1..n" style="text;html=1;strokeColor=none;fillColor=none;align=center;verticalAlign=middle;whiteSpace=wrap;rounded=0;" vertex="1" parent="1">
          <mxGeometry x="470" y="1429" width="80" height="30" as="geometry" />
        </mxCell>
        <mxCell id="e3qIg_uYp7nMrzDBOxzo-224" value="" style="endArrow=none;html=1;rounded=0;exitX=0.25;exitY=0;exitDx=0;exitDy=0;entryX=0.362;entryY=0.079;entryDx=0;entryDy=0;entryPerimeter=0;" edge="1" parent="1" source="e3qIg_uYp7nMrzDBOxzo-215" target="e3qIg_uYp7nMrzDBOxzo-237">
          <mxGeometry width="50" height="50" relative="1" as="geometry">
            <mxPoint x="650" y="1420" as="sourcePoint" />
            <mxPoint x="450.91999999999985" y="1315.44" as="targetPoint" />
            <Array as="points">
              <mxPoint x="710" y="1390" />
              <mxPoint x="480" y="1390" />
              <mxPoint x="480" y="1315" />
            </Array>
          </mxGeometry>
        </mxCell>
        <mxCell id="e3qIg_uYp7nMrzDBOxzo-226" value="1..n" style="text;html=1;strokeColor=none;fillColor=none;align=center;verticalAlign=middle;whiteSpace=wrap;rounded=0;" vertex="1" parent="1">
          <mxGeometry x="656" y="1433" width="80" height="30" as="geometry" />
        </mxCell>
        <mxCell id="e3qIg_uYp7nMrzDBOxzo-228" value="Inventory" style="swimlane;fontStyle=0;childLayout=stackLayout;horizontal=1;startSize=26;fillColor=none;horizontalStack=0;resizeParent=1;resizeParentMax=0;resizeLast=0;collapsible=1;marginBottom=0;whiteSpace=wrap;html=1;" vertex="1" parent="1">
          <mxGeometry x="539" y="1266" width="140" height="52" as="geometry" />
        </mxCell>
        <mxCell id="e3qIg_uYp7nMrzDBOxzo-230" value="Reports" style="swimlane;fontStyle=0;childLayout=stackLayout;horizontal=1;startSize=26;fillColor=none;horizontalStack=0;resizeParent=1;resizeParentMax=0;resizeLast=0;collapsible=1;marginBottom=0;whiteSpace=wrap;html=1;" vertex="1" parent="1">
          <mxGeometry x="539" y="1140" width="140" height="52" as="geometry" />
        </mxCell>
        <mxCell id="e3qIg_uYp7nMrzDBOxzo-232" value="" style="endArrow=none;html=1;rounded=0;exitX=0.75;exitY=0;exitDx=0;exitDy=0;entryX=1;entryY=0.5;entryDx=0;entryDy=0;" edge="1" parent="1" source="e3qIg_uYp7nMrzDBOxzo-215" target="e3qIg_uYp7nMrzDBOxzo-230">
          <mxGeometry width="50" height="50" relative="1" as="geometry">
            <mxPoint x="785" y="1451" as="sourcePoint" />
            <mxPoint x="719" y="1284" as="targetPoint" />
            <Array as="points">
              <mxPoint x="780" y="1166" />
            </Array>
          </mxGeometry>
        </mxCell>
        <mxCell id="e3qIg_uYp7nMrzDBOxzo-233" value="1..n" style="text;html=1;strokeColor=none;fillColor=none;align=center;verticalAlign=middle;whiteSpace=wrap;rounded=0;" vertex="1" parent="1">
          <mxGeometry x="760" y="1294" width="80" height="30" as="geometry" />
        </mxCell>
        <mxCell id="e3qIg_uYp7nMrzDBOxzo-234" value="1..n" style="text;html=1;strokeColor=none;fillColor=none;align=center;verticalAlign=middle;whiteSpace=wrap;rounded=0;" vertex="1" parent="1">
          <mxGeometry x="656" y="1130" width="80" height="30" as="geometry" />
        </mxCell>
        <mxCell id="e3qIg_uYp7nMrzDBOxzo-235" value="1" style="text;html=1;strokeColor=none;fillColor=none;align=center;verticalAlign=middle;whiteSpace=wrap;rounded=0;" vertex="1" parent="1">
          <mxGeometry x="656" y="1262" width="80" height="30" as="geometry" />
        </mxCell>
        <mxCell id="e3qIg_uYp7nMrzDBOxzo-236" value="1..n" style="text;html=1;strokeColor=none;fillColor=none;align=center;verticalAlign=middle;whiteSpace=wrap;rounded=0;" vertex="1" parent="1">
          <mxGeometry x="690" y="1327" width="80" height="30" as="geometry" />
        </mxCell>
        <mxCell id="e3qIg_uYp7nMrzDBOxzo-237" value="1" style="text;html=1;strokeColor=none;fillColor=none;align=center;verticalAlign=middle;whiteSpace=wrap;rounded=0;" vertex="1" parent="1">
          <mxGeometry x="420" y="1313" width="80" height="30" as="geometry" />
        </mxCell>
        <mxCell id="e3qIg_uYp7nMrzDBOxzo-238" value="" style="endArrow=none;html=1;rounded=0;exitX=0.25;exitY=0;exitDx=0;exitDy=0;entryX=1;entryY=0.5;entryDx=0;entryDy=0;" edge="1" parent="1" source="e3qIg_uYp7nMrzDBOxzo-228">
          <mxGeometry width="50" height="50" relative="1" as="geometry">
            <mxPoint x="515.5" y="1459" as="sourcePoint" />
            <mxPoint x="449.5" y="1292" as="targetPoint" />
            <Array as="points">
              <mxPoint x="574" y="1240" />
              <mxPoint x="480" y="1240" />
              <mxPoint x="480" y="1292" />
            </Array>
          </mxGeometry>
        </mxCell>
        <mxCell id="e3qIg_uYp7nMrzDBOxzo-239" value="1" style="text;html=1;strokeColor=none;fillColor=none;align=center;verticalAlign=middle;whiteSpace=wrap;rounded=0;" vertex="1" parent="1">
          <mxGeometry x="420" y="1264" width="80" height="30" as="geometry" />
        </mxCell>
        <mxCell id="e3qIg_uYp7nMrzDBOxzo-240" value="1" style="text;html=1;strokeColor=none;fillColor=none;align=center;verticalAlign=middle;whiteSpace=wrap;rounded=0;" vertex="1" parent="1">
          <mxGeometry x="544" y="1236" width="80" height="30" as="geometry" />
        </mxCell>
      </root>
    </mxGraphModel>
  </diagram>
</mxfile>
